HIERARCHY
ROOT joint_Root
{
  OFFSET 0 0 0
  CHANNELS 6 Xposition Yposition Zposition Zrotation Xrotation Yrotation
  JOINT Hips
  {
    OFFSET 0 93.9241 -3
    CHANNELS 6 Xposition Yposition Zposition Zrotation Xrotation Yrotation
    JOINT Spine
    {
      OFFSET 15.7357 0 0
      CHANNELS 6 Xposition Yposition Zposition Zrotation Xrotation Yrotation
      JOINT Chest
      {
        OFFSET 8.98455 -0.406207 0
        CHANNELS 6 Xposition Yposition Zposition Zrotation Xrotation Yrotation
        JOINT Neck
        {
          OFFSET 16.3773 0 0
          CHANNELS 6 Xposition Yposition Zposition Zrotation Xrotation Yrotation
          JOINT Head
          {
            OFFSET 6.45672 0 0
            CHANNELS 6 Xposition Yposition Zposition Zrotation Xrotation Yrotation
            End Site
            {
              OFFSET 0 0 0
            }
          }
        }
        JOINT Shoulder_L
        {
          OFFSET 12.9942 -0.242716 4.98039
          CHANNELS 6 Xposition Yposition Zposition Zrotation Xrotation Yrotation
          JOINT UpperArm_L
          {
            OFFSET 5.34809 0 0
            CHANNELS 6 Xposition Yposition Zposition Zrotation Xrotation Yrotation
            JOINT LowerArm_L
            {
              OFFSET 24.3286 1.87007e-05 0
              CHANNELS 6 Xposition Yposition Zposition Zrotation Xrotation Yrotation
              JOINT Hand_L
              {
                OFFSET 22.2916 0 0
                CHANNELS 6 Xposition Yposition Zposition Zrotation Xrotation Yrotation
                End Site
                {
                  OFFSET 0 0 0
                }
              }
            }
          }
        }
        JOINT Shoulder_R
        {
          OFFSET 12.9945 -0.242716 -4.98039
          CHANNELS 6 Xposition Yposition Zposition Zrotation Xrotation Yrotation
          JOINT UpperArm_R
          {
            OFFSET -5.34813 0 0
            CHANNELS 6 Xposition Yposition Zposition Zrotation Xrotation Yrotation
            JOINT LowerArm_R
            {
              OFFSET -24.3289 0.000322201 0
              CHANNELS 6 Xposition Yposition Zposition Zrotation Xrotation Yrotation
              JOINT Hand_R
              {
                OFFSET -22.2915 -0.000108084 0
                CHANNELS 6 Xposition Yposition Zposition Zrotation Xrotation Yrotation
                End Site
                {
                  OFFSET 0 0 0
                }
              }
            }
          }
        }
      }
    }
    JOINT UpperLeg_L
    {
      OFFSET -2.19248 -6.46944 0
      CHANNELS 6 Xposition Yposition Zposition Zrotation Xrotation Yrotation
      JOINT LowerLeg_L
      {
        OFFSET 39.0811 0 -1.23785e-05
        CHANNELS 6 Xposition Yposition Zposition Zrotation Xrotation Yrotation
        JOINT Foot_L
        {
          OFFSET 40.9854 0 -1.26872e-05
          CHANNELS 6 Xposition Yposition Zposition Zrotation Xrotation Yrotation
          JOINT Toes_L
          {
            OFFSET 11.7543 0 0
            CHANNELS 6 Xposition Yposition Zposition Zrotation Xrotation Yrotation
            End Site
            {
              OFFSET 0 0 0
            }
          }
        }
      }
    }
    JOINT UpperLeg_R
    {
      OFFSET -2.19251 6.46944 0
      CHANNELS 6 Xposition Yposition Zposition Zrotation Xrotation Yrotation
      JOINT LowerLeg_R
      {
        OFFSET -39.0811 -0.00228153 -0.0401928
        CHANNELS 6 Xposition Yposition Zposition Zrotation Xrotation Yrotation
        JOINT Foot_R
        {
          OFFSET -40.9854 0 0
          CHANNELS 6 Xposition Yposition Zposition Zrotation Xrotation Yrotation
          JOINT Toes_R
          {
            OFFSET -11.7543 0 0
            CHANNELS 6 Xposition Yposition Zposition Zrotation Xrotation Yrotation
            End Site
            {
              OFFSET 0 0 0
            }
          }
        }
      }
    }
  }
}
MOTION
Frames:	4
Frame Time:	0.0333333
0 0 0 0 0 -0 -1.44929 86.5996 19.5467 91.491 -73.3555 1.82903 15.7357 5.1072e-06 -5.51765e-07 49.8798 84.207 -45.0452 8.98455 -0.406207 -4.3199e-07 1.4535 -7.72832 9.77126 16.3773 -1.3905e-06 -6.99897e-07 -0.755702 19.4679 -8.45339 6.45672 -1.25837e-06 -1.02172e-07 1.74004 33.1125 -3.38282 12.9942 -0.242716 4.98039 -91.5998 -19.1838 -109.857 5.34809 -7.22636e-06 -6.2814e-07 -30.4634 5.08265 10.0577 24.3286 1.87007e-05 4.90208e-06 -1.5043 7.49748 0.14024 22.2916 -9.88446e-07 4.63217e-06 -10.8794 5.96423 -4.87473 12.9945 -0.242716 -4.98039 91.1637 -5.09885 -92.1268 -5.34813 -1.25947e-06 -3.79883e-06 -48.7437 29.314 -53.9657 -24.3289 0.000322201 -8.65921e-06 4.02836 -3.30142 -129.279 -22.2915 -0.000108084 -4.47941e-06 12.3111 5.22128 2.18238 -2.19248 -6.46944 -1.22534e-07 -155.384 -12.2272 -14.4401 39.0811 -6.73843e-06 -1.23785e-05 0.329815 -0.703177 24.9453 40.9854 -6.48686e-06 -1.26872e-05 -18.8185 -2.91248 -38.7014 11.7543 -2.30145e-07 3.05095e-06 -2.89893 -4.04601 -30.7698 -2.19251 6.46944 -1.45247e-06 160.793 -13.0649 166.955 -39.0811 -0.00228153 -0.0401928 0.317638 -0.360208 40.0049 -40.9854 7.72618e-06 5.99936e-06 -15.3572 4.4031 -65.567 -11.7543 -5.6619e-06 -5.58687e-06 0.724385 -0.936399 -23.2212 
0 0 0 0 0 -0 -1.26494 84.4817 21.6309 87.8252 -75.9569 -0.512344 15.7357 5.1072e-06 -5.51765e-07 53.7055 83.3682 -48.2489 8.98455 -0.406207 -4.3199e-07 3.36069 -8.05181 11.1533 16.3773 -1.3905e-06 -6.99897e-07 -0.954636 18.5396 -8.89069 6.45672 -1.25837e-06 -1.02172e-07 -2.56667 31.6316 -2.7595 12.9942 -0.242716 4.98039 -90.809 -21.1898 -107.236 5.34809 -7.22636e-06 -6.2814e-07 -26.5172 -11.9883 13.7588 24.3286 1.87007e-05 4.90208e-06 -0.851853 16.4581 0.0807034 22.2916 -9.88446e-07 4.63217e-06 -2.42526 5.63851 -3.38597 12.9945 -0.242716 -4.98039 91.2473 -5.47684 -92.15 -5.34813 -1.25947e-06 -3.79883e-06 -48.6287 26.7477 -55.4446 -24.3289 0.000322201 -8.65921e-06 4.35289 -3.61386 -129.629 -22.2915 -0.000108084 -4.47941e-06 10.9073 5.21266 2.39937 -2.19248 -6.46944 -1.22534e-07 -154.01 -14.9872 -13.5417 39.0811 -6.73843e-06 -1.23785e-05 0.48889 -0.74561 32.631 40.9854 -6.48686e-06 -1.26872e-05 -22.3854 1.4836 -55.4425 11.7543 -2.30145e-07 3.05095e-06 -0.758644 -0.810783 -20.2941 -2.19251 6.46944 -1.45247e-06 159.907 -13.4355 164.57 -39.0811 -0.00228153 -0.0401928 0.429748 -0.404223 45.7188 -40.9854 7.72618e-06 5.99936e-06 -16.1548 7.22955 -67.0814 -11.7543 -5.6619e-06 -5.58687e-06 0.827583 -0.969738 -23.6703 
0 0 0 0 0 -0 -1.17812 83.3115 22.3296 94.591 -78.1114 6.07056 15.7357 5.1072e-06 -5.51765e-07 66.2232 84.097 -61.5127 8.98455 -0.406207 -4.3199e-07 3.26897 -4.93895 9.55697 16.3773 -1.3905e-06 -6.99897e-07 -1.50335 19.3474 -8.55726 6.45672 -1.25837e-06 -1.02172e-07 -1.81218 28.6929 -3.56972 12.9942 -0.242716 4.98039 -89.1325 -18.9418 -102.327 5.34809 -7.22636e-06 -6.2814e-07 -22.9193 -16.7453 9.93485 24.3286 1.87007e-05 4.90208e-06 -1.01931 -8.73874 -6.49792 22.2916 -9.88446e-07 4.63217e-06 -3.52035 5.47226 -5.42677 12.9945 -0.242716 -4.98039 90.9001 -5.01956 -94.8234 -5.34813 -1.25947e-06 -3.79883e-06 -52.0147 26.5193 -50.8671 -24.3289 0.000322201 -8.65921e-06 2.37275 -2.12586 -131.836 -22.2915 -0.000108084 -4.47941e-06 10.0273 5.2006 2.705 -2.19248 -6.46944 -1.22534e-07 -154.68 -19.0885 -12.2473 39.0811 -6.73843e-06 -1.23785e-05 0.529303 -0.749328 34.3612 40.9854 -6.48686e-06 -1.26872e-05 -22.8124 6.05918 -60.4972 11.7543 -2.30145e-07 3.05095e-06 -0.203517 0.127862 -16.575 -2.19251 6.46944 -1.45247e-06 158.137 -15.3614 161.789 -39.0811 -0.00228153 -0.0401928 0.557604 -0.449569 50.5003 -40.9854 7.72618e-06 5.99936e-06 -16.2292 6.24526 -68.6706 -11.7543 -5.6619e-06 -5.58687e-06 0.998229 -1.20349 -25.2785 
0 0 0 0 0 -0 -1.41384 83.6285 21.577 103.71 -76.1122 15.3608 15.7357 5.1072e-06 -5.51765e-07 82.2745 84.3322 -78.986 8.98455 -0.406207 -4.3199e-07 3.52352 -1.64343 6.6209 16.3773 -1.3905e-06 -6.99897e-07 -1.35529 20.0501 -10.1215 6.45672 -1.25837e-06 -1.02172e-07 -1.3643 26.814 -3.14233 12.9942 -0.242716 4.98039 -89.0571 -16.2931 -101.643 5.34809 -7.22636e-06 -6.2814e-07 -22.4787 -34.0885 7.01097 24.3286 1.87007e-05 4.90208e-06 -2.18855 -4.61537 -25.539 22.2916 -9.88446e-07 4.63217e-06 2.86812 5.47021 -5.38952 12.9945 -0.242716 -4.98039 90.7124 -5.41076 -97.4848 -5.34813 -1.25947e-06 -3.79883e-06 -56.272 29.0797 -48.0264 -24.3289 0.000322201 -8.65921e-06 5.05915 -4.57734 -132.039 -22.2915 -0.000108084 -4.47941e-06 9.8657 5.20344 2.63588 -2.19248 -6.46944 -1.22534e-07 -156.82 -17.9203 -12.4044 39.0811 -6.73843e-06 -1.23785e-05 0.438007 -0.657376 32.7435 40.9854 -6.48686e-06 -1.26872e-05 -23.1385 4.96387 -55.3513 11.7543 -2.30145e-07 3.05095e-06 -0.179074 -0.0480899 -20.1853 -2.19251 6.46944 -1.45247e-06 158.129 -16.5015 162.801 -39.0811 -0.00228153 -0.0401928 0.559788 -0.429053 51.9298 -40.9854 7.72618e-06 5.99936e-06 -15.6408 -0.502336 -70.6827 -11.7543 -5.6619e-06 -5.58687e-06 1.08918 -1.33396 -26.162 
